HIERARCHY
ROOT Hips
{
	OFFSET 0.000000 0.000000 0.000000
	CHANNELS 6 Xposition Yposition Zposition Zrotation Yrotation Xrotation 
	JOINT LHipJoint
	{
		OFFSET 0.000000 0.000000 0.000000
		CHANNELS 3 Zrotation Yrotation Xrotation
		JOINT LeftUpLeg
		{
			OFFSET 1.363060 -1.794630 0.839290
			CHANNELS 3 Zrotation Yrotation Xrotation
			JOINT LeftLeg
			{
				OFFSET 2.448110 -6.726130 0.000000
				CHANNELS 3 Zrotation Yrotation Xrotation
				JOINT LeftFoot
				{
					OFFSET 2.562200 -7.039590 0.000000
					CHANNELS 3 Zrotation Yrotation Xrotation
					JOINT LeftToeBase
					{
						OFFSET 0.157640 -0.433110 2.322550
						CHANNELS 3 Zrotation Yrotation Xrotation
						End Site
						{
							OFFSET 0.000000 0.000000 0.000000
						}
					}
				}
			}
		}
	}
	JOINT RHipJoint
	{
		OFFSET 0.000000 0.000000 0.000000
		CHANNELS 3 Zrotation Yrotation Xrotation
		JOINT RightUpLeg
		{
			OFFSET -1.305520 -1.794630 0.839290
			CHANNELS 3 Zrotation Yrotation Xrotation
			JOINT RightLeg
			{
				OFFSET -2.542530 -6.985550 0.000000
				CHANNELS 3 Zrotation Yrotation Xrotation
				JOINT RightFoot
				{
					OFFSET -2.568260 -7.056230 0.000000
					CHANNELS 3 Zrotation Yrotation Xrotation
					JOINT RightToeBase
					{
						OFFSET -0.164730 -0.452590 2.363150
						CHANNELS 3 Zrotation Yrotation Xrotation
						End Site
						{
							OFFSET 0.000000 0.000000 0.000000
						}
					}
				}
			}
		}
	}
}
MOTION
Frames: 14
Frame Time: 0.008333
1.924521 16.714981 1.183797 3.479305 -70.832781 10.252581 -9.940204 1.915820 5.721833 -5.097617 -8.850280 -32.265879 -1.341021 0.770893 32.985927 1.925118 8.320327 -14.222130 -1.009800 0.000000 -46.228300 10.314619 -0.870389 -0.202720 2.855477 -15.957674 -20.775150 1.465641 -0.576567 26.933885 -3.270058 -14.079897 -12.863416 0.721600 -0.000000 -65.447800
1.902283 16.722706 1.195115 3.554504 -68.874877 10.253767 -9.840743 1.937612 6.061061 -4.868082 -10.252273 -32.296191 -1.328901 0.734221 32.584919 1.832348 7.822671 -13.867599 -0.906100 -0.000000 -46.394500 10.363950 -0.907696 -0.360178 2.948864 -16.910031 -20.169018 1.451785 -0.519025 26.302729 -3.446850 -15.065294 -12.725956 0.709300 0.000000 -65.126300
1.879221 16.735076 1.205892 3.644981 -66.927507 10.243256 -9.733004 1.964210 6.398284 -4.637494 -11.636071 -32.258084 -1.323137 0.689530 32.025514 1.736392 7.330837 -13.424327 -0.794700 0.000001 -46.592500 10.417336 -0.949889 -0.502030 3.038797 -17.799805 -19.488873 1.430519 -0.446835 25.504301 -3.630165 -16.109003 -12.491878 0.660400 -0.000000 -64.796300
1.855791 16.751997 1.215620 3.777417 -65.006789 10.184421 -9.614285 1.996155 6.726739 -4.425130 -13.000600 -32.121954 -1.325067 0.637154 31.301212 1.639910 6.862189 -12.893536 -0.679300 -0.000001 -46.787400 10.479750 -0.992424 -0.636729 3.101588 -18.650401 -18.729936 1.401926 -0.363182 24.555234 -3.812588 -17.180028 -12.156516 0.567300 -0.000000 -64.497200
1.832260 16.773323 1.224617 3.915528 -63.126024 10.110521 -9.488034 2.032771 7.043188 -4.222919 -14.322989 -31.894629 -1.334512 0.577708 30.416871 1.541977 6.410483 -12.276682 -0.560900 -0.000000 -47.005600 10.548498 -1.038039 -0.760235 3.152262 -19.442692 -17.891618 1.365451 -0.266781 23.445528 -3.994770 -18.283084 -11.716183 0.422000 -0.000000 -64.209600
1.808918 16.798716 1.232767 4.060025 -61.298972 10.013998 -9.354984 2.073688 7.342493 -4.038159 -15.593204 -31.562375 -1.351965 0.511608 29.373022 1.443671 5.982107 -11.576913 -0.441801 0.000000 -47.247500 10.624719 -1.085945 -0.876047 3.183619 -20.183842 -16.969426 1.321531 -0.159112 22.179574 -4.171897 -19.398622 -11.168890 0.217000 -0.000000 -63.933701
1.785948 16.827603 1.240353 4.203563 -59.537641 9.904348 -9.217025 2.118860 7.624962 -3.869474 -16.806939 -31.136039 -1.376599 0.440196 28.189244 1.346296 5.581738 -10.803962 -0.324200 -0.000000 -47.484700 10.707790 -1.136582 -0.986997 3.197982 -20.893909 -15.982830 1.273170 -0.042846 20.778278 -4.336559 -20.494686 -10.511975 -0.054300 0.000000 -63.712600
1.763681 16.859431 1.247372 4.342408 -57.853333 9.779721 -9.076143 2.167209 7.887878 -3.719832 -17.957244 -30.612521 -1.408069 0.364077 26.874001 1.250816 5.214021 -9.963597 -0.209300 0.000000 -47.723300 10.797309 -1.190278 -1.095579 3.190843 -21.581616 -14.934711 1.222117 0.079979 19.251477 -4.483333 -21.547952 -9.746734 -0.396100 -0.000001 -63.548899
1.742296 16.893487 1.254040 4.472472 -56.255925 9.645791 -8.934948 2.217837 8.131707 -3.587440 -19.040937 -30.003401 -1.445261 0.284296 25.447401 1.158345 4.882605 -9.066289 -0.098100 0.000000 -47.954999 10.891825 -1.248087 -1.203391 3.162377 -22.260414 -13.841231 1.171552 0.206660 17.620220 -4.606001 -22.529444 -8.877741 -0.808600 -0.000001 -63.452400
1.721904 16.928994 1.260498 4.593023 -54.753974 9.505274 -8.796141 2.269554 8.357031 -3.471107 -20.056341 -29.320444 -1.486910 0.201819 23.930376 1.070050 4.591763 -8.122453 0.008700 -0.000000 -48.172100 10.989799 -1.310858 -1.311818 3.110327 -22.942240 -12.720006 1.124758 0.334029 15.910205 -4.698663 -23.410122 -7.911163 -1.288200 -0.000000 -63.436300
1.702686 16.965203 1.266656 4.711513 -53.356047 9.351514 -8.661394 2.320912 8.564178 -3.374853 -21.006120 -28.570044 -1.532138 0.117389 22.341135 0.987635 4.349660 -7.142842 0.111500 0.000000 -48.369500 11.090672 -1.378219 -1.423366 3.024651 -23.640617 -11.586142 1.084709 0.458317 14.152717 -4.755775 -24.160134 -6.856657 -1.825500 0.000000 -63.523000
1.684748 17.001261 1.273122 4.815243 -52.067537 9.209809 -8.535698 2.370899 8.757995 -3.284813 -21.883099 -27.798198 -1.578310 0.032615 20.722960 0.910895 4.148399 -6.146556 0.209900 0.000000 -48.524000 11.189463 -1.452873 -1.533758 2.920998 -24.358175 -10.484495 1.056395 0.576342 12.391713 -4.774344 -24.756701 -5.728281 -2.405900 0.000000 -63.724500
1.668141 17.036738 1.278405 4.946226 -50.900343 9.019954 -8.415476 2.416285 8.930186 -3.234368 -22.708792 -26.938860 -1.627359 -0.053980 19.044530 0.844629 4.025454 -5.127436 0.308101 -0.000000 -48.674700 11.291735 -1.528076 -1.653688 2.745400 -25.097877 -9.374857 1.036843 0.683772 10.644525 -4.752179 -25.180114 -4.544127 -3.008000 -0.000000 -64.022400
1.653040 17.070807 1.284068 5.065334 -49.854580 8.850353 -8.310057 2.457214 9.091295 -3.186806 -23.456711 -26.097732 -1.674689 -0.139470 17.387849 0.785187 3.944439 -4.118671 0.404100 -0.000001 -48.770800 11.386494 -1.610305 -1.768293 2.552888 -25.844546 -8.345834 1.033203 0.778864 8.973138 -4.691790 -25.424697 -3.327179 -3.609099 0.000000 -64.429500
